<svg id="fi_8518856" enable-background="new 0 0 512 512" height="512" viewBox="0 0 512 512" width="512" xmlns="http://www.w3.org/2000/svg" xmlns:xlink="http://www.w3.org/1999/xlink"><linearGradient id="SVGID_1_" gradientUnits="userSpaceOnUse" x1="256" x2="256" y1="512" y2="-85.333"><stop offset="0" stop-color="#ffbef9"></stop><stop offset="1" stop-color="#fff1ff"></stop></linearGradient><linearGradient id="SVGID_00000086684751267022921980000008793415978510204828_" gradientUnits="userSpaceOnUse" x1="256" x2="256" y1="407" y2="105"><stop offset="0" stop-color="#ff81ff"></stop><stop offset="1" stop-color="#a93aff"></stop></linearGradient><g><circle cx="256" cy="256" fill="url(#SVGID_1_)" r="256"></circle><path d="m304.067 399.184c-15.099 5.067-31.261 7.816-48.067 7.816s-32.968-2.749-48.067-7.816l48.067-34.923zm-111.701-230.769 18.36-56.506c-31.687 9.946-58.874 30.053-77.741 56.506zm-39.328 121.039-48.02-34.888c-.004.478-.018.955-.018 1.434 0 33.692 11.038 64.803 29.69 89.923zm166.596-121.039h59.381c-18.868-26.453-46.055-46.56-77.742-56.506zm39.328 121.039 18.348 56.469c18.651-25.12 29.69-56.231 29.69-89.923 0-.479-.014-.956-.018-1.434zm4.866 72.239c-11.733 11.968-25.441 21.99-40.599 29.54l-62.029-45.067c-3.101-2.253-7.3-2.253-10.401 0l-62.029 45.067c-15.158-7.55-28.866-17.571-40.599-29.54l23.682-72.884c1.184-3.645-.113-7.639-3.214-9.892l-62.019-45.059c2.499-17.003 7.832-33.082 15.504-47.747h76.67c3.833 0 7.23-2.468 8.415-6.114l23.689-72.908c8.165-1.367 16.549-2.089 25.102-2.089s16.937.722 25.102 2.089l23.69 72.908c1.184 3.645 4.582 6.114 8.415 6.114h76.67c7.672 14.665 13.005 30.744 15.504 47.747l-62.019 45.06c-3.101 2.253-4.399 6.247-3.214 9.892zm-48.925-92.023-19.285-59.352c-1.184-3.645-4.582-6.114-8.415-6.114h-62.406c-3.833 0-7.23 2.468-8.415 6.114l-19.285 59.352c-1.184 3.645.113 7.639 3.214 9.892l50.488 36.682c3.101 2.253 7.3 2.253 10.401 0l50.488-36.682c3.101-2.253 4.399-6.246 3.215-9.892zm-83.678-47.77-15.311 47.125 40.086 29.125 40.087-29.125-15.312-47.125z" fill="url(#SVGID_00000086684751267022921980000008793415978510204828_)"></path></g></svg>